<svg xmlns="http://www.w3.org/2000/svg" viewBox="0 0 909.0 768.0" fill="currentColor">
  <g transform="translate(0,768.0) scale(0.1,-0.1)">
    <path d="M6323 7674 c-8 -3 -10 -21 -6 -53 5 -44 3 -51 -28 -86 -19 -21 -59 -54 -89 -73 -30 -20 -58 -40 -62 -46 -15 -21 -8 -117 12 -177 26 -78 20 -129 -17 -129 -32 0 -63 -17 -63 -35 0 -37 -92 -7 -193 63 -155 107 -216 128 -512 178 -115 19 -253 43 -305 52 -148 25 -458 22 -625 -6 -169 -29 -343 -67 -474 -104 -74 -20 -116 -27 -142 -23 -31 5 -56 -3 -160 -50 -165 -76 -303 -153 -426 -239 -56 -39 -127 -84 -156 -101 -81 -45 -87 -52 -87 -101 0 -40 -7 -52 -97 -161 -196 -237 -281 -378 -340 -563 -25 -78 -27 -98 -27 -250 0 -130 4 -174 17 -209 9 -24 17 -47 17 -51 0 -4 -39 -1 -87 6 -108 17 -244 18 -277 3 -26 -12 -38 -41 -29 -66 3 -8 33 -28 67 -43 34 -15 122 -68 197 -117 152 -100 171 -109 249 -118 48 -5 57 -10 68 -33 7 -16 36 -42 69 -62 32 -18 75 -49 95 -68 53 -50 61 -72 193 -550 31 -111 58 -209 61 -216 4 -9 -6 -21 -25 -31 -46 -23 -39 -85 10 -85 26 0 38 -22 61 -113 l21 -86 -27 -53 c-23 -47 -355 -511 -391 -547 -11 -12 -28 -6 -112 41 -458 255 -970 303 -1464 138 -460 -153 -831 -477 -1054 -920 -214 -424 -243 -951 -79 -1412 39 -109 146 -311 222 -418 87 -123 282 -323 403 -415 176 -133 389 -239 586 -291 173 -46 243 -54 502 -54 219 0 256 2 365 25 234 47 478 153 676 293 92 65 316 276 377 357 l31 39 52 -13 c69 -18 97 -17 119 3 18 16 24 15 107 -14 151 -54 210 -44 236 41 16 54 -1 86 -83 160 -64 56 -68 62 -52 74 15 12 21 11 38 -1 142 -103 230 -136 365 -137 178 0 312 55 429 178 118 125 167 257 158 430 -3 76 -11 117 -31 170 -15 39 -29 77 -32 85 -2 10 42 48 132 115 75 55 148 114 163 132 22 26 36 33 86 40 51 7 62 12 73 36 12 26 17 27 85 27 156 1 213 33 211 115 -1 65 -28 88 -140 125 -64 22 -92 35 -87 43 4 7 93 107 198 222 105 116 354 391 554 613 199 221 373 409 386 418 13 8 38 14 57 12 30 -3 33 -7 39 -44 4 -22 19 -69 33 -105 15 -35 22 -65 17 -67 -5 -2 -49 -29 -98 -62 -267 -176 -474 -410 -622 -700 -351 -690 -228 -1513 308 -2064 259 -265 541 -428 891 -513 96 -24 128 -26 376 -30 248 -4 282 -3 384 17 700 134 1269 686 1423 1380 62 279 61 513 -3 800 -151 679 -685 1210 -1372 1364 -306 69 -631 54 -936 -42 -45 -15 -64 -17 -67 -9 -2 7 -13 44 -26 82 -12 39 -27 99 -34 135 -6 36 -35 137 -64 225 -63 193 -130 419 -125 424 4 5 145 -54 234 -99 95 -48 189 -120 169 -130 -8 -4 -50 -12 -94 -18 -125 -17 -135 -23 -135 -77 0 -25 7 -60 16 -77 l16 -31 71 6 c98 9 249 48 338 89 69 32 77 33 114 22 61 -19 89 -17 113 9 12 13 22 29 22 35 0 7 8 12 19 12 27 0 71 38 71 61 0 13 10 24 30 31 35 12 50 35 50 76 0 21 7 32 25 40 27 12 40 49 31 85 -3 13 -25 45 -48 72 -35 40 -43 57 -49 104 -5 40 -3 62 7 78 14 23 170 113 196 113 27 0 51 -38 56 -88 4 -43 1 -53 -25 -83 -40 -45 -53 -72 -53 -106 0 -46 54 -145 115 -211 66 -72 92 -89 108 -73 7 7 1 30 -23 75 l-33 65 5 208 c4 186 3 213 -14 262 -23 64 -19 86 27 153 19 28 35 54 35 58 0 14 -59 89 -78 99 -11 6 -40 15 -65 20 -78 18 -121 -10 -141 -91 -18 -78 -104 -123 -263 -139 -153 -15 -333 10 -333 45 0 44 -112 46 -158 3 -30 -27 -87 -40 -282 -62 l-115 -12 -187 187 c-120 119 -189 197 -194 215 -4 15 -4 73 -1 129 3 55 2 164 -3 241 -9 179 0 256 45 354 19 43 43 113 54 157 13 57 23 78 32 75 8 -3 49 -5 92 -4 l77 1 0 -29 c0 -51 77 -70 98 -24 6 14 16 25 21 25 6 0 46 -36 90 -79 90 -89 133 -111 178 -89 15 7 36 30 46 51 13 28 23 37 43 37 49 0 65 16 58 61 l-7 40 27 -11 c46 -17 70 -11 91 23 21 33 50 39 100 23 12 -4 28 -1 40 8 16 12 20 28 23 98 l4 83 55 57 c40 41 54 62 51 76 -10 35 6 46 40 28 69 -36 111 -13 142 76 27 80 38 242 21 329 -48 240 -168 398 -391 513 -105 55 -179 80 -295 101 -90 16 -379 30 -402 19z m-934 -2266 c13 -109 21 -205 19 -214 -3 -17 -145 85 -320 231 -186 155 -483 328 -757 440 l-93 39 23 19 c20 16 33 18 105 12 83 -7 83 -7 166 34 112 55 167 60 333 31 157 -28 289 -24 410 12 l80 24 6 -216 c3 -118 16 -304 28 -412z m-959 -618 c69 -12 168 -33 220 -47 89 -23 260 -90 260 -100 0 -3 -29 -36 -64 -74 -56 -61 -196 -255 -207 -288 -6 -16 -167 -41 -177 -27 -5 6 -48 129 -96 274 -48 144 -89 269 -92 277 -4 9 0 12 13 10 10 -2 74 -14 143 -25z m1348 -88 c59 -42 156 -102 215 -132 59 -30 107 -61 107 -67 0 -19 -41 -42 -96 -52 -28 -6 -140 -19 -250 -31 -109 -11 -216 -23 -237 -26 l-38 -6 30 54 c36 63 116 251 131 308 6 22 15 38 20 35 5 -3 58 -40 118 -83z m1328 35 c35 -19 108 -106 92 -111 -7 -3 -63 -21 -125 -42 -110 -37 -113 -37 -170 -24 -32 7 -83 29 -114 49 -31 20 -82 52 -113 71 -65 39 -62 43 45 54 44 5 69 4 74 -3 3 -6 30 -11 59 -11 40 0 60 5 77 20 21 18 33 20 88 15 35 -3 74 -11 87 -18z m-3611 -496 c63 -74 112 -138 110 -141 -9 -14 -124 -21 -164 -10 -32 8 -42 17 -55 50 -8 21 -15 56 -14 76 1 28 -4 42 -22 56 -16 13 -32 52 -56 135 -19 65 -34 119 -34 121 0 2 27 -32 60 -75 34 -43 112 -138 175 -212z m2516 -61 c19 -5 48 -24 65 -41 27 -28 29 -36 29 -102 -1 -116 56 -44 -680 -876 -99 -112 -200 -227 -225 -256 -203 -232 -344 -390 -350 -393 -5 -2 -21 14 -36 35 -15 21 -49 61 -75 88 -26 28 -64 75 -84 105 -35 52 -37 58 -31 109 15 126 119 368 239 556 35 55 111 165 168 245 101 141 194 293 275 450 l39 75 100 6 c178 9 529 9 566 -1z m-2238 -339 c26 -51 47 -101 47 -110 0 -17 -229 -305 -237 -297 -10 10 -103 355 -103 383 0 54 33 81 130 102 47 11 92 19 100 18 8 -1 36 -44 63 -96z m-459 -203 c82 -270 116 -392 116 -409 0 -11 -11 -41 -24 -67 -30 -61 -62 -160 -77 -242 -18 -98 -20 -99 -69 -33 -75 100 -169 200 -259 275 -47 39 -90 75 -95 79 -5 4 7 27 26 51 19 24 96 130 172 236 167 234 172 237 210 110z m-1243 -424 c183 -34 506 -166 503 -206 -1 -11 -437 -622 -625 -875 -38 -51 -39 -52 -76 -41 -127 35 -293 -56 -342 -187 -94 -250 136 -487 388 -401 51 18 134 85 157 128 9 16 22 14 184 -16 310 -59 290 -53 290 -87 0 -64 40 -108 205 -226 87 -62 285 -248 285 -267 0 -4 -18 -34 -40 -66 -202 -298 -549 -521 -927 -597 -122 -24 -393 -24 -518 1 -175 34 -372 111 -518 202 -84 53 -204 153 -282 236 -282 298 -430 729 -385 1123 64 566 434 1033 966 1218 114 40 223 65 327 77 98 12 306 3 408 -16z m2120 -142 c-85 -164 -110 -202 -138 -202 -9 0 -30 -12 -46 -27 -17 -17 9 31 66 122 93 148 187 278 195 270 2 -2 -33 -75 -77 -163z m3249 157 c516 -64 957 -390 1160 -859 90 -207 126 -402 117 -635 -10 -226 -51 -385 -154 -587 -76 -151 -159 -262 -282 -381 -211 -204 -445 -329 -724 -388 -125 -27 -397 -32 -517 -10 -367 67 -714 279 -927 568 -114 154 -208 367 -255 574 -32 147 -32 394 0 557 75 373 277 686 584 905 36 26 68 47 71 47 3 0 12 -18 21 -41 92 -230 334 -682 559 -1048 41 -66 46 -79 45 -131 -1 -73 24 -111 87 -136 59 -22 110 -8 154 41 61 70 34 177 -54 216 -41 18 -50 29 -87 102 -126 252 -458 1060 -458 1116 0 20 211 75 355 94 64 8 224 7 305 -4z m-4678 -345 c117 -95 232 -240 322 -406 l47 -86 -27 -64 c-90 -216 -221 -428 -280 -453 -44 -18 -118 -69 -170 -117 l-40 -37 -246 37 -246 36 -6 40 c-9 52 -39 120 -71 158 -14 16 -25 33 -25 37 0 17 652 911 664 911 5 0 40 -25 78 -56z m1156 -182 c-39 -78 -46 -149 -24 -226 16 -55 20 -59 70 -82 30 -13 125 -42 212 -64 119 -30 187 -54 272 -95 l114 -55 -29 -33 c-15 -17 -66 -76 -112 -130 -62 -72 -89 -96 -100 -91 -72 32 -163 55 -240 61 -80 5 -90 8 -95 27 -3 12 -41 148 -85 304 l-79 283 61 84 c34 46 62 83 64 82 1 -2 -12 -31 -29 -65z m-179 -541 c34 -124 61 -228 61 -233 0 -4 -13 -14 -28 -22 -16 -8 -54 -35 -85 -60 -30 -25 -57 -46 -59 -46 -2 0 -5 35 -6 78 -3 93 -18 213 -39 305 l-15 68 49 74 c26 41 51 71 55 67 3 -4 34 -108 67 -231z"/>
  </g>
</svg>
