<svg xmlns="http://www.w3.org/2000/svg" viewBox="0 0 686.0 663.0" fill="currentColor">
  <g transform="translate(686,663.0) scale(-0.1,-0.1)">
    <path d="M1015 6597 c-142 -69 -282 -249 -316 -406 -15 -70 11 -196 60 -295 31 -60 43 -75 83 -96 55 -29 65 -47 74 -137 9 -101 38 -133 93 -103 15 8 21 3 36 -30 20 -44 61 -80 118 -104 l37 -15 -25 -46 c-13 -26 -37 -85 -52 -132 -26 -78 -32 -88 -73 -116 -105 -71 -166 -134 -209 -216 -23 -44 -47 -83 -53 -87 -7 -5 -24 8 -42 32 -17 21 -64 73 -103 114 -63 66 -80 92 -129 200 -112 247 -115 274 -49 413 25 52 45 103 45 113 0 15 -4 41 -26 161 -3 16 -16 26 -45 34 -22 7 -48 22 -57 34 -35 44 -98 59 -122 30 -7 -8 -25 -15 -40 -15 -15 0 -35 -8 -44 -19 -9 -10 -30 -21 -47 -25 -18 -3 -34 -15 -41 -31 -6 -13 -22 -32 -35 -41 -30 -19 -53 -71 -53 -116 0 -62 38 -179 80 -248 23 -38 50 -95 60 -127 10 -32 28 -79 40 -105 11 -27 45 -133 75 -238 30 -104 66 -218 79 -252 54 -145 225 -446 282 -495 31 -28 80 -30 168 -7 80 21 114 43 211 134 44 42 131 120 192 174 140 122 207 194 291 319 36 53 69 97 73 97 15 0 107 -80 179 -156 41 -44 116 -114 165 -156 123 -104 213 -194 324 -322 52 -60 121 -129 153 -154 32 -25 72 -68 90 -96 17 -28 56 -77 85 -108 29 -31 53 -61 53 -66 0 -5 -46 -12 -102 -16 -341 -22 -655 -83 -883 -171 -63 -24 -163 -58 -222 -75 -130 -38 -153 -51 -236 -139 -56 -60 -67 -77 -77 -126 -14 -69 -11 -92 46 -262 47 -141 64 -182 118 -266 18 -29 49 -95 70 -147 51 -130 205 -424 283 -542 73 -110 161 -292 204 -419 36 -109 39 -210 8 -293 -24 -66 -123 -176 -248 -277 -71 -57 -98 -72 -170 -94 -176 -54 -205 -79 -181 -157 19 -67 111 -93 325 -92 163 0 182 4 385 99 86 41 179 75 255 95 196 51 242 68 271 103 25 29 26 36 22 114 -4 73 -9 92 -49 169 -30 60 -54 93 -75 106 -44 26 -99 150 -191 427 -103 311 -130 413 -138 516 -12 170 -54 324 -130 480 -24 50 -40 94 -35 99 19 19 330 -1 525 -35 176 -30 206 -33 400 -32 116 0 248 5 295 11 68 8 89 7 107 -4 12 -8 77 -87 145 -176 193 -256 389 -448 648 -634 119 -85 264 -208 356 -301 81 -81 133 -110 283 -159 202 -67 330 -124 493 -221 167 -98 232 -131 516 -258 89 -40 197 -97 240 -126 82 -56 364 -272 381 -293 8 -9 8 -22 0 -45 -10 -27 -8 -35 7 -52 11 -12 33 -28 51 -38 34 -17 168 -181 226 -278 35 -58 51 -116 62 -228 13 -119 37 -155 105 -155 53 0 76 22 108 108 67 173 80 349 37 497 -40 139 -54 230 -64 410 -5 94 -12 178 -16 188 -4 10 -26 28 -49 40 -44 23 -124 27 -294 14 -71 -5 -90 -3 -120 12 -56 29 -212 145 -366 272 -77 63 -179 146 -228 186 -49 40 -102 89 -117 110 -40 55 -108 114 -171 150 -30 17 -158 70 -285 119 -161 61 -246 99 -283 126 -80 59 -155 159 -241 318 -119 223 -156 274 -388 541 -77 88 -123 198 -123 291 0 36 -7 105 -15 154 -42 238 -127 390 -279 499 -63 45 -176 156 -176 173 0 5 -22 32 -49 59 -34 35 -66 85 -113 178 -35 72 -83 162 -106 200 -22 39 -60 115 -83 170 -22 55 -87 185 -142 289 -56 105 -118 231 -137 280 -64 158 -114 316 -104 325 5 5 90 39 189 76 223 82 283 111 371 175 83 61 93 61 257 16 139 -39 249 -60 392 -75 120 -13 346 -77 461 -131 78 -36 85 -42 149 -129 68 -93 107 -131 132 -131 17 0 132 -44 187 -72 21 -10 45 -17 52 -14 17 7 18 58 2 74 -8 8 -5 13 13 21 38 14 47 31 48 86 0 28 1 59 1 70 3 115 -21 253 -46 272 -10 7 -61 27 -114 44 -78 25 -105 30 -150 25 -46 -5 -73 -1 -160 27 -58 19 -159 59 -225 89 -327 151 -351 160 -575 218 -256 66 -304 74 -366 55 -27 -8 -92 -19 -144 -25 -186 -22 -492 -87 -590 -125 -86 -33 -108 -37 -236 -44 -159 -9 -207 -25 -307 -101 -47 -35 -60 -40 -89 -35 -20 4 -58 -1 -98 -13 -146 -43 -172 -46 -216 -24 -70 36 -168 164 -219 286 -35 84 -93 174 -132 202 -87 65 -207 104 -318 104 -60 0 -81 -5 -140 -33z"/>
  </g>
</svg>
