<svg xmlns="http://www.w3.org/2000/svg" viewBox="0 0 1200.0 396.0" fill="currentColor">
  <g transform="translate(0,396.0) scale(0.1,-0.1)">
    <path d="M6017 3945 c-62 -17 -96 -40 -101 -68 -56 -277 -57 -340 -10 -492 15 -49 29 -107 32 -127 4 -36 3 -37 -56 -67 -83 -42 -111 -68 -180 -168 -33 -49 -70 -97 -81 -108 -31 -27 -117 -146 -125 -171 -7 -22 15 -54 35 -54 6 0 43 34 82 76 94 99 125 115 53 27 -152 -186 -184 -241 -154 -271 26 -26 52 -10 145 86 l94 97 -89 -115 c-49 -63 -91 -122 -95 -131 -16 -45 54 -76 100 -44 19 14 21 13 27 -9 9 -37 41 -42 84 -12 43 29 165 147 236 226 49 56 70 56 42 1 -18 -34 -21 -132 -6 -162 22 -40 70 -19 70 30 0 10 10 31 21 45 12 15 42 67 66 114 l45 87 -5 132 c-5 112 -3 142 14 200 10 37 23 112 28 166 5 55 12 101 15 104 2 3 62 -53 133 -124 86 -87 166 -156 243 -210 157 -109 153 -104 97 -161 -25 -26 -78 -90 -117 -142 -104 -140 -247 -268 -455 -408 -150 -101 -226 -131 -354 -139 -81 -5 -109 -2 -176 17 -44 12 -99 33 -121 46 -66 39 -202 85 -294 100 -235 39 -484 -14 -720 -151 -110 -64 -198 -90 -470 -140 -266 -48 -373 -75 -544 -134 -164 -56 -328 -93 -421 -95 -71 -1 -88 3 -148 32 -38 17 -129 70 -203 118 -167 106 -354 197 -459 223 -44 11 -143 28 -220 36 -243 28 -588 99 -680 139 -89 40 -129 71 -158 125 -53 96 -109 134 -197 134 -68 0 -124 -22 -218 -84 -91 -62 -168 -100 -256 -129 -133 -44 -273 -116 -341 -177 -35 -32 -76 -67 -91 -79 -20 -15 -27 -30 -27 -52 0 -18 -6 -32 -12 -32 -20 0 -38 -28 -39 -63 -1 -17 -9 -44 -19 -59 -14 -21 -16 -31 -8 -47 7 -13 8 -22 1 -26 -20 -13 -11 -64 15 -81 17 -11 25 -25 25 -45 0 -32 31 -69 57 -69 9 0 57 22 107 49 50 27 115 56 143 64 29 9 73 30 97 46 58 40 71 45 261 97 188 52 243 55 445 24 239 -36 319 -64 656 -232 126 -63 249 -122 274 -132 l45 -18 -89 -24 c-49 -14 -156 -56 -238 -95 -178 -85 -577 -240 -697 -271 -64 -16 -115 -22 -196 -22 -102 0 -115 2 -182 32 -173 77 -253 27 -343 -218 -39 -108 -61 -144 -170 -275 -50 -60 -102 -129 -116 -152 -27 -46 -64 -177 -64 -226 0 -17 -8 -39 -17 -49 -9 -10 -20 -40 -24 -66 -5 -26 -11 -60 -14 -77 -12 -62 59 -137 103 -109 9 6 21 27 27 47 7 24 42 69 110 139 89 92 113 111 218 168 65 36 166 96 225 134 132 84 219 126 443 209 260 98 385 124 738 157 234 22 348 38 551 76 182 34 327 41 460 21 274 -40 278 -40 368 -30 50 5 100 6 117 1 17 -5 75 -13 131 -18 55 -5 163 -25 240 -44 554 -139 1000 -142 1584 -12 85 19 202 39 260 45 58 6 128 17 155 26 30 10 135 22 260 30 116 8 248 22 295 30 49 9 190 20 335 25 271 9 305 14 422 61 43 17 155 57 248 89 279 96 388 140 420 170 51 49 277 185 381 229 55 23 160 72 234 109 132 65 137 67 207 65 39 -1 104 -9 145 -18 215 -46 216 -47 518 -47 188 0 323 4 371 12 66 11 91 10 175 -4 137 -24 376 -32 503 -17 57 7 196 30 308 51 113 22 251 45 307 51 90 11 105 10 137 -5 20 -9 42 -29 50 -44 39 -78 111 -130 204 -146 22 -4 77 -25 121 -47 85 -42 133 -51 159 -29 40 33 -4 93 -99 136 -71 31 -82 44 -38 44 42 0 113 -23 291 -95 140 -57 169 -66 200 -59 20 4 46 6 58 5 12 -1 27 7 37 20 14 21 14 24 -1 42 -10 10 -18 28 -18 40 0 16 -14 30 -50 49 -27 15 -49 33 -47 39 4 18 -17 37 -56 50 -20 6 -98 41 -172 76 -91 44 -177 76 -265 100 -71 19 -177 49 -235 66 -86 26 -124 32 -210 33 -115 2 -219 15 -590 75 -326 53 -383 56 -595 34 -148 -16 -190 -17 -282 -7 -59 7 -156 15 -215 19 l-108 6 6 71 c5 62 10 74 35 96 16 14 29 32 29 41 0 8 11 26 25 39 14 13 28 39 31 59 4 20 18 65 31 101 65 171 25 372 -103 530 -181 221 -452 282 -697 158 -121 -61 -218 -184 -277 -352 -35 -103 -41 -112 -77 -121 -15 -3 -40 -17 -56 -31 -32 -27 -92 -33 -130 -13 -12 7 -58 49 -102 93 -58 60 -104 95 -168 130 -92 51 -124 82 -182 172 -44 68 -69 92 -164 157 -91 61 -188 107 -302 141 -79 24 -96 35 -192 114 -102 85 -488 326 -617 386 -62 29 -134 33 -213 11z"/>
  </g>
</svg>
